<?xml version="1.0" standalone="no"?>
<!DOCTYPE svg PUBLIC "-//W3C//DTD SVG 20010904//EN"
 "http://www.w3.org/TR/2001/REC-SVG-20010904/DTD/svg10.dtd">
<svg version="1.0" xmlns="http://www.w3.org/2000/svg"
 width="300.000000pt" height="300.000000pt" viewBox="0 0 300.000000 300.000000"
 preserveAspectRatio="xMidYMid meet">
<metadata>
Created by potrace 1.14, written by Peter Selinger 2001-2017
</metadata>
<g transform="translate(0.000000,300.000000) scale(0.100000,-0.100000)"
fill="#000000" stroke="none">
<path d="M0 1500 l0 -1500 1500 0 1500 0 0 1500 0 1500 -1500 0 -1500 0 0
-1500z m1609 599 c179 -41 325 -201 353 -387 45 -288 -203 -552 -497 -529 -69
5 -163 34 -200 61 -18 13 -14 25 84 257 57 134 112 253 122 264 24 25 81 25
109 0 35 -31 26 -78 -49 -254 -77 -179 -77 -179 5 -166 110 16 213 96 247 191
23 66 22 170 -2 227 -26 61 -84 123 -145 155 -44 23 -63 27 -136 27 -73 0 -92
-4 -136 -27 -61 -32 -119 -94 -145 -155 -23 -55 -25 -162 -4 -223 18 -51 11
-84 -22 -110 -62 -48 -121 -5 -147 107 -20 90 -20 139 0 217 43 167 170 298
334 342 55 15 170 17 229 3z m81 -1052 c55 -28 64 -94 18 -137 -20 -19 -35
-20 -208 -20 -173 0 -188 1 -208 20 -30 28 -38 68 -21 99 25 45 51 51 229 51
112 0 173 -4 190 -13z"/>
</g>
</svg>
